<svg xmlns="http://www.w3.org/2000/svg" viewBox="0 0 142.01 134.63"><defs><style>.cls-1{fill:#606060;}.cls-2{fill:#4a79ee;}.cls-2,.cls-3,.cls-4{stroke:#1b1464;stroke-miterlimit:10;}.cls-2,.cls-4{stroke-width:0.25px;}.cls-3,.cls-4,.cls-6{fill:none;}.cls-3{stroke-width:0.5px;opacity:0.35;}.cls-5{fill:#1b1464;}</style></defs><g id="Layer_2" data-name="Layer 2"><g id="Layer_1-2" data-name="Layer 1"><path class="cls-1" d="M6.68,89c13.88,9.37,20.82,0,20.82,0"/><path class="cls-2" d="M39,67.15C67.72,69,87.87,76.38,107.66,83.8c9.5,1.94,17.33,3.16,25,0,8.52-36.24-5.08-53.64-31.23-60.37q-14.07-3.64-25.12-2.26C56.21,23.72,43.65,38.85,39,67.15Z"/><path class="cls-3" d="M97.25,22.39C66,22.39,56.58,53.1,55.61,69.23"/><path class="cls-4" d="M113.9,28.63c14.58,14.31,10.95,28.82,7.19,56.9"/><ellipse class="cls-5" cx="99.2" cy="22.45" rx="2.15" ry="3.19" transform="translate(59.87 116.25) rotate(-80)"/><path class="cls-2" d="M109.74,83.8C48.48,140.91,57.64,88.24,7.08,89h-.4L39,67.15C60.68,67,85.42,75.84,109.74,83.8Z"/><rect class="cls-6" width="142.01" height="134.63"/></g></g></svg>