<svg xmlns="http://www.w3.org/2000/svg" viewBox="0 0 142.01 134.63"><defs><style>.cls-1{fill:#ff0;}.cls-2{fill:#606060;}.cls-3{fill:none;}</style></defs><g id="Layer_2" data-name="Layer 2"><g id="Layer_1-2" data-name="Layer 1"><path class="cls-1" d="M137.85,28.93,115.69,12.31A36.47,36.47,0,0,0,98.86,6.16c-4-.24-8-.46-12-.59a5.51,5.51,0,0,0-2.7.6A41.11,41.11,0,0,1,71,10.24a3.76,3.76,0,0,1-1.06,0,40.88,40.88,0,0,1-13.2-4.08A5.42,5.42,0,0,0,54,5.58c-3.95.15-7.87.29-11.74.49a36.46,36.46,0,0,0-17,6.19L3,28.93a3.72,3.72,0,0,0-1.17,4.5l9.53,21.31a3.73,3.73,0,0,0,4.7,2l11-4.07a3.73,3.73,0,0,1,5,3.53l-.64,67.71a3.73,3.73,0,0,0,2.68,3.62,113.52,113.52,0,0,0,36.31,4.35,113.58,113.58,0,0,0,36.32-4.35,3.74,3.74,0,0,0,2.68-3.62l-.64-67.71a3.73,3.73,0,0,1,5-3.53l11,4.07a3.72,3.72,0,0,0,4.69-2L139,33.43A3.73,3.73,0,0,0,137.85,28.93Z"/><path class="cls-2" d="M52.88,7.09c11.49,5.79,23.38,6.52,35.8.72-1.68,7.86-7.12,12.81-17.9,13.6C57,18.9,52.19,13.8,52.88,7.09Z"/><rect class="cls-3" width="142.01" height="134.63"/></g></g></svg>