<svg xmlns="http://www.w3.org/2000/svg" viewBox="0 0 138.5 131.31"><defs><style>.cls-1{fill:none;}.cls-2{fill:#3f51b5;}.cls-3{fill:aqua;}.cls-4{fill:#00bcd4;}.cls-5{fill:#4dd0e1;}.cls-6{fill:#b2ebf2;}</style></defs><g id="Layer_2" data-name="Layer 2"><g id="Layer_1-2" data-name="Layer 1"><path class="cls-1" d="M73.49,22.27h0l0,0Z"/><path class="cls-1" d="M72.06,62.78v0l-18,13A2.61,2.61,0,0,0,53.1,77a2.69,2.69,0,0,1,.95-1.25Z"/><path class="cls-1" d="M54.83,36.9l.44.61c.14-.26.29-.52.43-.79Z"/><path class="cls-2" d="M31.78,7,27.23,10.3a2.69,2.69,0,0,0-.61,3.76l6.76,9.35,6.73-4.86Z"/><path class="cls-3" d="M101.23,103.16l-4.16-5.77-18,13a2.64,2.64,0,0,1-1.48.51l4.7,6.51a2.64,2.64,0,0,1,1-1.25Z"/><path class="cls-3" d="M72.05,62.76,54.65,38.68c.21-.39.42-.78.62-1.17l-.44-.61c-8.71,1.8-17.76,2.76-21.44,12.85l.69,1,0,0,7.1,9.83C51.67,63.8,52.06,63.5,51.37,74.64L53.1,77A2.61,2.61,0,0,1,54,75.77Z"/><path class="cls-3" d="M91.51,89.7l-4.17-5.77-18,13a2.68,2.68,0,0,1-1.49.51L72.55,104a2.64,2.64,0,0,1,1-1.25Z"/><path class="cls-3" d="M81.78,76.24l-4.16-5.77-18,13a2.68,2.68,0,0,1-1.49.51l4.71,6.51a2.56,2.56,0,0,1,.94-1.25Z"/><path class="cls-3" d="M88.78,123.86a2.68,2.68,0,0,1-1.49.51l1.57,2.17a3.71,3.71,0,0,0,5.18.83l16.22-11.71-3.47-4.81Z"/><path class="cls-4" d="M53.45,79.54l2.4,3.34A2.7,2.7,0,0,0,58.12,84L53.1,77A2.66,2.66,0,0,0,53.45,79.54Z"/><path class="cls-4" d="M77.62,70.47l-5.56-7.69-18,13A2.69,2.69,0,0,0,53.1,77l5,6.95a2.68,2.68,0,0,0,1.49-.51Z"/><path class="cls-4" d="M63.17,93l2.41,3.34a2.67,2.67,0,0,0,2.26,1.11l-5-7A2.68,2.68,0,0,0,63.17,93Z"/><path class="cls-4" d="M87.34,83.93l-5.56-7.69-18,13a2.56,2.56,0,0,0-.94,1.25l5,7a2.68,2.68,0,0,0,1.49-.51Z"/><path class="cls-4" d="M72.89,106.46l2.41,3.34a2.7,2.7,0,0,0,2.27,1.11l-5-7A2.68,2.68,0,0,0,72.89,106.46Z"/><path class="cls-4" d="M97.07,97.39,91.51,89.7l-18,13a2.64,2.64,0,0,0-1,1.25l5,7a2.64,2.64,0,0,0,1.48-.51Z"/><path class="cls-4" d="M82.62,119.92,85,123.26a2.67,2.67,0,0,0,2.26,1.11l-5-7A2.69,2.69,0,0,0,82.62,119.92Z"/><path class="cls-4" d="M106.79,110.85l-5.56-7.69-18,13a2.64,2.64,0,0,0-1,1.25l5,7a2.68,2.68,0,0,0,1.49-.51Z"/><path class="cls-2" d="M47.8,13,41,3.64A2.68,2.68,0,0,0,37.29,3L32.74,6.32l-1,.7,8.33,11.53Z"/><path class="cls-5" d="M73.52,22.27l0,0v0Z"/><path class="cls-3" d="M98,96.69l-1,.7,4.16,5.77,1-.7,18-13a2.7,2.7,0,0,1,1.49-.51L117,82.43a2.64,2.64,0,0,1-.95,1.25Z"/><path class="cls-3" d="M55.7,36.72c-.14.27-.29.53-.43.79s-.41.78-.62,1.17l17.4,24.08v0l1-.7,18-13a2.75,2.75,0,0,1,1.49-.51l-1.66-2.29c-10.58-2.54-10.17-2.83-9.72-13.46L73.52,22.27h0C70.56,32.53,63.33,35.08,55.7,36.72Z"/><path class="cls-3" d="M88.3,83.23l-1,.7,4.17,5.77,1-.7,18-13a2.75,2.75,0,0,1,1.49-.51L107.26,69a2.64,2.64,0,0,1-1,1.25Z"/><path class="cls-3" d="M96.59,56.76l-18,13-1,.7,4.16,5.77,1-.7,18-13a2.75,2.75,0,0,1,1.48-.51l-4.7-6.51A2.64,2.64,0,0,1,96.59,56.76Z"/><path class="cls-3" d="M107.75,110.15l-1,.7,3.47,4.81,1-.7,16.22-11.72a3.71,3.71,0,0,0,.84-5.18l-1.57-2.17a2.64,2.64,0,0,1-.95,1.25Z"/><path class="cls-4" d="M97.19,53l-2.4-3.33a2.71,2.71,0,0,0-2.27-1.12l5,6.95A2.66,2.66,0,0,0,97.19,53Z"/><path class="cls-4" d="M73,62.08l-1,.7,5.56,7.69,1-.7,18-13a2.64,2.64,0,0,0,1-1.25l-5-6.95a2.75,2.75,0,0,0-1.49.51Z"/><path class="cls-4" d="M106.92,66.47l-2.41-3.33A2.68,2.68,0,0,0,102.24,62l5,6.95A2.68,2.68,0,0,0,106.92,66.47Z"/><path class="cls-4" d="M82.75,75.54l-1,.7,5.56,7.69,1-.7,18-13a2.64,2.64,0,0,0,1-1.25l-5-6.95a2.75,2.75,0,0,0-1.48.51Z"/><path class="cls-4" d="M116.64,79.93l-2.41-3.33A2.68,2.68,0,0,0,112,75.48l5,7A2.69,2.69,0,0,0,116.64,79.93Z"/><path class="cls-4" d="M92.47,89l-1,.7,5.56,7.69,1-.7,18-13a2.64,2.64,0,0,0,.95-1.25l-5-7a2.75,2.75,0,0,0-1.49.51Z"/><path class="cls-4" d="M126.37,93.39,124,90.06a2.71,2.71,0,0,0-2.27-1.12l5,7A2.68,2.68,0,0,0,126.37,93.39Z"/><path class="cls-4" d="M102.19,102.46l-1,.7,5.56,7.69,1-.7,18-13a2.64,2.64,0,0,0,.95-1.25l-5-7a2.7,2.7,0,0,0-1.49.51Z"/><path class="cls-6" d="M54.83,36.9l.87-.18c7.63-1.64,14.86-4.19,17.79-14.45v0l-23-11.14L47.8,13l-7.69,5.55-6.73,4.86-2.64,1.91,1.95,23.47.56.78.14.18C37.07,39.66,46.12,38.7,54.83,36.9Z"/><rect class="cls-1" width="138.5" height="131.31"/></g></g></svg>