<svg xmlns="http://www.w3.org/2000/svg" viewBox="0 0 250 246"><defs><style>.cls-1{fill:#2395ee;}.cls-2,.cls-6{fill:none;}.cls-2{stroke:#fefdbd;stroke-width:0.5px;}.cls-2,.cls-5{stroke-miterlimit:10;}.cls-3,.cls-5{fill:#fff;}.cls-4{fill:#fefdbd;}.cls-5{stroke:#fff;stroke-width:2px;}</style></defs><g id="Layer_2" data-name="Layer 2"><g id="Layer_1-2" data-name="Layer 1"><circle class="cls-1" cx="129.87" cy="128.97" r="53.89"/><line class="cls-2" x1="131.47" y1="20.81" x2="130.78" y2="58.32"/><line class="cls-3" x1="131.47" y1="20.81" x2="130.78" y2="58.32"/><line class="cls-2" x1="131.47" y1="20.81" x2="130.78" y2="58.32"/><line class="cls-3" x1="131.47" y1="20.81" x2="130.78" y2="58.32"/><line class="cls-2" x1="131.47" y1="20.81" x2="130.78" y2="58.32"/><line class="cls-3" x1="131.47" y1="20.81" x2="130.78" y2="58.32"/><line class="cls-2" x1="131.47" y1="20.81" x2="130.78" y2="58.32"/><line class="cls-3" x1="131.47" y1="20.81" x2="130.78" y2="58.32"/><path class="cls-3" d="M125.47,20.81l-.69,37.51c-.15,7.72,11.85,7.73,12,0l.69-37.51c.14-7.72-11.86-7.72-12,0Z"/><line class="cls-4" x1="131.47" y1="20.81" x2="130.78" y2="58.32"/><path class="cls-3" d="M202.53,49.52l-27.08,26c-5.59,5.36,2.9,13.84,8.48,8.49L211,58c5.59-5.35-2.91-13.83-8.48-8.49Z"/><line class="cls-4" x1="206.77" y1="53.77" x2="179.69" y2="79.73"/><path class="cls-3" d="M55.67,205.35,83,179.67c5.64-5.29-2.86-13.76-8.49-8.48L47.19,196.86c-5.65,5.3,2.85,13.77,8.48,8.49Z"/><line class="cls-4" x1="51.43" y1="201.1" x2="78.78" y2="175.43"/><path class="cls-3" d="M22.5,130.17,60,131.46c7.73.26,7.72-11.74,0-12L22.5,118.17c-7.72-.27-7.71,11.73,0,12Z"/><line class="cls-4" x1="22.5" y1="124.17" x2="59.99" y2="125.46"/><path class="cls-3" d="M52.4,53.64,77.93,81.13c5.26,5.67,13.74-2.83,8.48-8.48L60.89,45.16C55.62,39.49,47.15,48,52.4,53.64Z"/><line class="cls-4" x1="56.64" y1="49.4" x2="82.17" y2="76.89"/><path class="cls-5" d="M100.49,114.06a2.17,2.17,0,0,1,2.16,2.17v17.68c0,7.52,3.34,10.7,7.82,10.7,5,0,8.16-3.28,8.16-10.7V116.23a2.17,2.17,0,0,1,2.17-2.17h0a2.17,2.17,0,0,1,2.17,2.17v17.38c0,10.3-5.43,14.53-12.69,14.53-6.87,0-12-3.93-12-14.33V116.23a2.17,2.17,0,0,1,2.16-2.17Z"/><path class="cls-5" d="M146.15,146.1l-9.53-29.2a2.17,2.17,0,0,1,2.06-2.84h.1a2.17,2.17,0,0,1,2.07,1.51l4.74,15c1.45,4.53,2.69,8.61,3.59,12.54h.1c.94-3.88,2.33-8.11,3.83-12.49l5.17-15.11a2.17,2.17,0,0,1,2.05-1.46h0a2.16,2.16,0,0,1,2,2.9l-10.44,29.2a2.18,2.18,0,0,1-2,1.44h-1.68A2.17,2.17,0,0,1,146.15,146.1Z"/><rect class="cls-6" width="250" height="246"/></g></g></svg>