<svg xmlns="http://www.w3.org/2000/svg" viewBox="0 0 250 246"><defs><style>.cls-1{fill:#2196f3;}.cls-2{fill:none;}</style></defs><g id="Layer_2" data-name="Layer 2"><g id="Layer_1-2" data-name="Layer 1"><path class="cls-1" d="M125.15,109.38H126A29.95,29.95,0,1,0,96.89,72.32a5.8,5.8,0,0,0,5.68,7.12h0a5.77,5.77,0,0,0,5.63-4.34A18.3,18.3,0,1,1,126,97.74"/><path class="cls-1" d="M102.27,97.74h22.88"/><path class="cls-1" d="M126,97.74H39.47a5.82,5.82,0,0,0-5.82,5.83h0a5.82,5.82,0,0,0,5.82,5.82H126"/><path class="cls-1" d="M202.54,134.35h.91c18.81,0,33.92-16.89,32.6-37.16-1.11-17.1-14.17-31-30.28-32.14-16.38-1.2-30.41,10.42-34.07,26.34a6.64,6.64,0,0,0,6.2,8.26h0a6.37,6.37,0,0,0,6.14-5c2.22-9.7,10.73-16.79,20.68-16.13s18,9.24,18.66,19.8c.72,12.32-8.48,22.56-19.93,22.56"/><path class="cls-1" d="M177.57,120.87h25"/><path class="cls-1" d="M203.45,120.87H23c-6.71,0-12.15,3-12.15,6.74h0c0,3.73,5.44,6.75,12.15,6.75H203.45"/><path class="cls-1" d="M161.48,144.84h.77c15.91,0,28.68,14.28,27.56,31.42-.94,14.46-12,26.18-25.6,27.18-13.85,1-25.71-8.81-28.81-22.28a5.61,5.61,0,0,1,5.24-7h0a5.39,5.39,0,0,1,5.2,4.25c1.88,8.2,9.07,14.19,17.48,13.64s15.26-7.82,15.78-16.75c.61-10.42-7.17-19.07-16.85-19.07"/><path class="cls-1" d="M140.37,156.24h21.11"/><path class="cls-1" d="M162.25,156.24H82.41A5.55,5.55,0,0,1,77,150.53h0a5.54,5.54,0,0,1,5.37-5.7h79.84"/><rect class="cls-2" width="250" height="246"/></g></g></svg>