<svg xmlns="http://www.w3.org/2000/svg" viewBox="0 0 159 159"><defs><style>.cls-1{fill:#55acee;}.cls-2{fill:#3b88c3;}.cls-3{fill:#606060;}.cls-4{fill:none;}</style></defs><g id="Layer_2" data-name="Layer 2"><g id="Layer_1-2" data-name="Layer 1"><path class="cls-1" d="M125.73,36.44c-7.16-8.06-17-12.59-26.31-14.31,8-16.29-45.86-16.42-38.16,0C52,23.85,42.11,28.38,35,36.44a453.7,453.7,0,0,0-18.62,95,27.42,27.42,0,0,0,18.62.9L46.36,73.92s-1.14,54.44,1.4,57.25c3.08,3.41,29.79,3.42,32.58,1.46,2.79,2,29.5,2,32.59-1.46,2.53-2.81,1.39-57.25,1.39-57.25l11.41,58.38a27.42,27.42,0,0,0,18.62-.9A453.7,453.7,0,0,0,125.73,36.44Z"/><path class="cls-2" d="M94.85,14.34c-2.62-1.4-8.15-2.1-13.74-2.07v0c-5.42,0-10.72.7-13.26,2.07a2.12,2.12,0,0,0-.88,3c2.71,4.67,8.67,6.49,14.61,6.44v0c5.78,0,11.5-1.88,14.14-6.43A2.13,2.13,0,0,0,94.85,14.34Z"/><rect class="cls-2" x="19.35" y="123.95" width="15" height="5" rx="2.5" transform="translate(13.72 -2.15) rotate(6.16)"/><rect class="cls-2" x="20.56" y="114.33" width="15" height="5" rx="2.5" transform="translate(12.7 -2.34) rotate(6.16)"/><rect class="cls-2" x="22.7" y="104.33" width="15" height="5" rx="2.5" transform="translate(11.64 -2.62) rotate(6.16)"/><rect class="cls-2" x="24.7" y="93.33" width="15" height="5" rx="2.5" transform="translate(10.47 -2.9) rotate(6.16)"/><rect class="cls-2" x="26.7" y="83.33" width="15" height="5" rx="2.5" transform="translate(9.41 -3.17) rotate(6.16)"/><rect class="cls-2" x="28.32" y="73.89" width="15" height="5" rx="2.5" transform="translate(8.4 -3.4) rotate(6.16)"/><rect class="cls-2" x="30.32" y="62.89" width="15" height="5" rx="2.5" transform="translate(7.23 -3.68) rotate(6.16)"/><rect class="cls-2" x="53.47" y="124.83" width="19.76" height="5" rx="2.5" transform="translate(1.48 -0.72) rotate(0.66)"/><rect class="cls-2" x="52.43" y="112.69" width="19.76" height="5" rx="2.5" transform="translate(1.34 -0.71) rotate(0.66)"/><rect class="cls-2" x="52.39" y="98.54" width="19.76" height="5" rx="2.5" transform="translate(1.17 -0.71) rotate(0.66)"/><rect class="cls-2" x="52.94" y="84.95" width="19.76" height="5" rx="2.5" transform="translate(1.02 -0.72) rotate(0.66)"/><rect class="cls-2" x="52.9" y="70.81" width="19.76" height="5" rx="2.5" transform="translate(0.85 -0.72) rotate(0.66)"/><rect class="cls-2" x="55.86" y="55.67" width="19.57" height="5" rx="2.5" transform="translate(0.68 -0.76) rotate(0.66)"/><rect class="cls-2" x="43.34" y="37.59" width="33.04" height="5" rx="2.5" transform="translate(7.32 -9.2) rotate(9.36)"/><rect class="cls-2" x="34.59" y="47.32" width="20.02" height="5" rx="2.5" transform="translate(27.23 -14.75) rotate(26.78)"/><path class="cls-2" d="M73.74,32.46a18.36,18.36,0,0,1-10.27-5.18,2.5,2.5,0,0,1-1.1-3.36h0c.62-1.23,2.12-1.72,3.07.14,2,3.19,5.39,4.93,10.26,5.18,1.52-.62,2,.88,1.4,2.12h0A2.5,2.5,0,0,1,73.74,32.46Z"/><path class="cls-3" d="M67.55,14.34c2.61-1.4,8.14-2.1,13.73-2.07v0c5.43,0,10.73.7,13.27,2.07a2.13,2.13,0,0,1,.87,3c-2.71,4.67-8.67,6.49-14.61,6.44v0c-5.78,0-11.5-1.88-14.14-6.43A2.13,2.13,0,0,1,67.55,14.34Z"/><rect class="cls-2" x="128.04" y="123.95" width="15" height="5" rx="2.5" transform="translate(283.87 237.64) rotate(173.84)"/><rect class="cls-2" x="126.84" y="114.33" width="15" height="5" rx="2.5" transform="translate(280.44 218.57) rotate(173.84)"/><rect class="cls-2" x="124.69" y="104.33" width="15" height="5" rx="2.5" transform="translate(275.08 198.85) rotate(173.84)"/><rect class="cls-2" x="122.69" y="93.33" width="15" height="5" rx="2.5" transform="translate(269.91 177.13) rotate(173.84)"/><rect class="cls-2" x="120.69" y="83.33" width="15" height="5" rx="2.5" transform="translate(264.85 157.4) rotate(173.84)"/><rect class="cls-2" x="119.07" y="73.89" width="15" height="5" rx="2.5" transform="translate(260.61 138.76) rotate(173.84)"/><rect class="cls-2" x="117.07" y="62.89" width="15" height="5" rx="2.5" transform="translate(255.44 117.04) rotate(173.84)"/><rect class="cls-2" x="89.16" y="124.83" width="19.76" height="5" rx="2.5" transform="translate(199.55 253.5) rotate(179.34)"/><rect class="cls-2" x="90.2" y="112.69" width="19.76" height="5" rx="2.5" transform="translate(201.49 229.21) rotate(179.34)"/><rect class="cls-2" x="90.24" y="98.54" width="19.76" height="5" rx="2.5" transform="translate(201.41 200.92) rotate(179.34)"/><rect class="cls-2" x="89.69" y="84.95" width="19.76" height="5" rx="2.5" transform="translate(200.16 173.74) rotate(179.34)"/><rect class="cls-2" x="89.74" y="70.81" width="19.76" height="5" rx="2.5" transform="translate(200.08 145.46) rotate(179.34)"/><rect class="cls-2" x="86.96" y="55.67" width="19.57" height="5" rx="2.5" transform="translate(194.17 115.21) rotate(179.34)"/><rect class="cls-2" x="86.02" y="37.69" width="32.27" height="5" rx="2.5" transform="translate(209.03 65.26) rotate(171.73)"/><rect class="cls-2" x="107.78" y="47.32" width="20.02" height="5" rx="2.5" transform="translate(245.4 41.23) rotate(153.22)"/><path class="cls-2" d="M88.65,32.46a18.3,18.3,0,0,0,10.27-5.18A2.51,2.51,0,0,0,100,23.92h0c-.63-1.23-2.13-1.72-3.08.14-2,3.19-5.39,4.93-10.26,5.18-1.52-.62-2,.88-1.39,2.12h0A2.48,2.48,0,0,0,88.65,32.46Z"/><rect class="cls-3" x="79.35" y="26.95" width="4" height="103" rx="2"/><rect class="cls-4" width="159" height="159"/></g></g></svg>