<svg xmlns="http://www.w3.org/2000/svg" viewBox="0 0 142.01 134.63"><defs><style>.cls-1{fill:none;}.cls-2{fill:#42210b;}.cls-3{fill:#606060;}</style></defs><g id="Layer_2" data-name="Layer 2"><g id="Layer_1-2" data-name="Layer 1"><rect class="cls-1" width="142.01" height="134.63"/><path class="cls-2" d="M35.76,24.45a152.49,152.49,0,0,0,32.05-3c-2,30.18-2.83,58.79,0,82l-12.67,1.49-1.49-4.47c-18.63,8.19-23.85,6-40.24,1.49,0-1.49-3.56-10.63.74-9.69C36.57,97.16,50.92,77.62,35.76,24.45Z"/><path class="cls-3" d="M67.81,21.3c0,1.14-7.18,4.14-16,4.14s-16,.15-16-1,7.18-5.21,16-5.21S67.81,20.16,67.81,21.3Z"/><polygon class="cls-3" points="54 101.45 55.14 104.94 67.06 103.45 65.57 100.47 54 101.45"/><path class="cls-3" d="M13.41,102v-1.49C28.31,109.41,49.18,102,52.16,99l1.49,1.49C39.77,107.07,28.31,109.41,13.41,102Z"/><path class="cls-2" d="M110.29,24.6a152.49,152.49,0,0,1-32.05-3c2,30.18,2.83,58.79,0,82l12.67,1.49,1.49-4.47c18.63,8.19,23.85,6,40.24,1.49,0-1.49,3.56-10.63-.74-9.69C109.48,97.31,95.12,77.77,110.29,24.6Z"/><path class="cls-3" d="M78.24,21.45c0,1.14,7.17,4.14,16,4.14s16,.15,16-1-7.18-5.21-16-5.21S78.24,20.31,78.24,21.45Z"/><polygon class="cls-3" points="92.05 101.6 90.91 105.09 78.99 103.6 80.48 100.62 92.05 101.6"/><path class="cls-3" d="M132.64,102.11v-1.49c-14.9,8.94-35.77,1.49-38.75-1.49l-1.49,1.49C106.28,107.22,117.74,109.56,132.64,102.11Z"/></g></g></svg>