<svg xmlns="http://www.w3.org/2000/svg" viewBox="0 0 159 159"><defs><style>.cls-1,.cls-4{fill:#ffd72a;}.cls-2{fill:#ffde53;}.cls-3{fill:#806f2a;}.cls-4{stroke:#dcb824;stroke-miterlimit:10;stroke-width:4px;}.cls-5{fill:#dcb824;}.cls-6{fill:none;}</style></defs><g id="Layer_2" data-name="Layer 2"><g id="Layer_1-2" data-name="Layer 1"><path class="cls-1" d="M113.5,49.77l-16-6.43-3-.91V38.75S83.5,47,80.5,47s-14-8.27-14-8.27v3.68l-3,.91-16,6.43-18,70.68,15,4.59,6.5-8.72L63,53H98l12,63.34,6.5,8.72,15-4.59Z"/><path class="cls-2" d="M89.5,14.89a33,33,0,0,0-18,0c-5.91,1.83-8.26,10.86-10,21.11l5,2.75v4.59l14,7.35,14-7.35V38.75l5-2.75C97.76,25.75,95.41,16.72,89.5,14.89Z"/><path class="cls-3" d="M66.85,34.73c9.79-3.19,18.72-3.32,26.68-.07a.83.83,0,0,1,0,1.57c-3.81,1.61-8,4.78-12.31,8.73a1,1,0,0,1-1.39-.07,32.48,32.48,0,0,0-13-8.55A.84.84,0,0,1,66.85,34.73Z"/><polygon class="cls-1" points="108.92 122.28 99.92 51.6 81.92 51.6 79 51.6 61 51.6 52 122.28 52 147.07 79.8 147.48 79.8 147.5 80.46 147.49 81.12 147.5 81.12 147.48 108.92 147.07 108.92 122.28"/><line class="cls-4" x1="80.5" y1="44.72" x2="80.5" y2="146.61"/><rect class="cls-5" x="85.5" y="110.81" width="17" height="27.54"/><rect class="cls-5" x="56.5" y="110.81" width="17" height="27.54"/><rect class="cls-6" width="159" height="159"/></g></g></svg>