<svg xmlns="http://www.w3.org/2000/svg" viewBox="0 0 159 159"><defs><style>.cls-1{fill:#434343;}.cls-2{fill:#ccc;}.cls-3{fill:#454249;}.cls-4{fill:#ac4ebc;}.cls-4,.cls-5{stroke:#662d91;stroke-miterlimit:10;stroke-width:2px;}.cls-5,.cls-6{fill:none;}</style></defs><g id="Layer_2" data-name="Layer 2"><g id="Layer_1-2" data-name="Layer 1"><path class="cls-1" d="M52,41.33l4.67-4L42.58,21c-5.27-6.19-11-4.32-16.76,2.23-4.91,7-1.36,10.37,4.44,16.49,4.26,1.69,7.09-2.86,5.55-4.44L31.66,30.2c-1.75-3.14,3.74-7.51,6.65-4.74Z"/><rect class="cls-2" x="76.54" y="30.16" width="4.93" height="75.75" transform="translate(-25.26 67.99) rotate(-40.71)"/><rect class="cls-3" x="129.98" y="121.42" width="3.7" height="16.01" transform="translate(-52.51 117.3) rotate(-40.71)"/><path class="cls-4" d="M35.22,62.84,122,125c6.65,3,9.13,1.16,6.14-6.27L79.4,23.94c-.39,10.75-4.53,16.31-17.34,7.8,3.84,17.37-2.6,22.26-17.41,14C49.8,59.93,48.39,67,35.22,62.84Z"/><path class="cls-5" d="M46.3,47l81,78.53a.71.71,0,0,0,1.07-.93L62.64,33"/><rect class="cls-6" width="159" height="159"/></g></g></svg>