<svg xmlns="http://www.w3.org/2000/svg" viewBox="0 0 124.72 124.74"><defs><style>.cls-1{fill:#fff;}.cls-2{fill:none;stroke:#fff;stroke-miterlimit:10;stroke-width:0.5px;}</style></defs><g id="Layer_2" data-name="Layer 2"><g id="Layer_1-2" data-name="Layer 1"><path class="cls-1" d="M62.35,40.38a22,22,0,1,1-22,22,22,22,0,0,1,22-22m0-8a30,30,0,1,0,30,30,30,30,0,0,0-30-30Z"/><line class="cls-2" x1="63.45" y1="2.9" x2="63.07" y2="23.74"/><line class="cls-2" x1="63.45" y1="2.9" x2="63.07" y2="23.74"/><line class="cls-2" x1="63.45" y1="2.9" x2="63.07" y2="23.74"/><line class="cls-2" x1="63.45" y1="2.9" x2="63.07" y2="23.74"/><path class="cls-1" d="M60.45,2.9l-.38,20.84c-.08,3.86,5.92,3.86,6,0L66.45,2.9c.07-3.87-5.93-3.87-6,0Z"/><path class="cls-1" d="M103.18,19.09,88.13,33.52c-2.8,2.67,1.45,6.91,4.24,4.24l15-14.43c2.79-2.68-1.45-6.91-4.24-4.24Z"/><path class="cls-1" d="M121.83,60.79,101,60.3c-3.86-.09-3.86,5.91,0,6l20.85.49c3.86.1,3.86-5.9,0-6Z"/><path class="cls-1" d="M105.41,103.42,91.07,88.3c-2.67-2.81-6.9,1.44-4.25,4.24l14.35,15.12c2.66,2.81,6.9-1.44,4.24-4.24Z"/><path class="cls-1" d="M63.62,121.84,64.23,101c.11-3.87-5.89-3.86-6,0l-.61,20.83c-.11,3.87,5.89,3.86,6,0Z"/><path class="cls-1" d="M21.09,105.21l15.2-14.27c2.83-2.64-1.42-6.88-4.24-4.24L16.85,101c-2.82,2.65,1.43,6.88,4.24,4.24Z"/><path class="cls-1" d="M2.89,63.33l20.84.72c3.86.13,3.86-5.87,0-6L2.89,57.33c-3.86-.13-3.85,5.87,0,6Z"/><path class="cls-1" d="M19.75,20.9,33.93,36.18c2.64,2.84,6.87-1.41,4.25-4.24L24,16.66c-2.63-2.83-6.87,1.42-4.24,4.24Z"/></g></g></svg>