<svg xmlns="http://www.w3.org/2000/svg" viewBox="0 0 132 82.52"><defs><style>.cls-1{fill:none;}.cls-1,.cls-2{stroke:#fff;stroke-miterlimit:10;stroke-width:8px;}.cls-2{fill:#fff;}</style></defs><g id="Layer_2" data-name="Layer 2"><g id="Layer_1-2" data-name="Layer 1"><path class="cls-1" d="M52.48,66.46a26,26,0,0,1-5.66,0Z"/><path class="cls-1" d="M104.09,42.37C104.09,55.75,94.2,66.6,82,66.6l-29.52-.14-5.66,0c-.68-.07-1.34-.18-2-.31l-17.59.23a17.14,17.14,0,0,1-4.66.65C12.31,67,4,57.88,4,46.63s8.24-20.29,18.45-20.36C26,13.39,36.88,4,49.78,4c10.54,0,19.73,6.26,24.68,15.58A20.47,20.47,0,0,1,82,18.14C94.2,18.14,104.09,29,104.09,42.37Z"/><path class="cls-2" d="M75.34,78a25.44,25.44,0,0,1-5.78,0Z"/><path class="cls-2" d="M128,53.39c0,13.65-10.1,24.73-22.54,24.73L75.34,78l-5.78,0c-.69-.07-1.36-.18-2-.31l-18,.23a17.41,17.41,0,0,1-4.75.66c-10.47,0-18.95-9.3-18.95-20.78S34.29,37,44.7,37c3.61-13.15,14.73-22.72,27.89-22.72,10.75,0,20.13,6.39,25.17,15.89a20.93,20.93,0,0,1,7.7-1.47C117.9,28.67,128,39.74,128,53.39Z"/></g></g></svg>