<svg xmlns="http://www.w3.org/2000/svg" viewBox="0 0 131.2 122.2"><defs><style>.cls-1,.cls-2{fill:#fff;}.cls-2{stroke:#fff;stroke-miterlimit:10;stroke-width:8px;}.cls-3{fill:none;}</style></defs><g id="Layer_2" data-name="Layer 2"><g id="Layer_1-2" data-name="Layer 1"><path class="cls-1" d="M28.45,83.48l-3.68,7.88a3.08,3.08,0,0,0,1.08,4.1A3,3,0,0,0,30,94.39l3.68-7.88a3.07,3.07,0,0,0-1.07-4.1,3,3,0,0,0-4.11,1.07Z"/><path class="cls-1" d="M44.86,83.91l-8.13,18c-1.58,3.49,3.59,6.55,5.18,3l8.13-18c1.58-3.49-3.59-6.54-5.18-3Z"/><path class="cls-1" d="M64.18,83.91l-9.05,20.58c-1.54,3.5,3.63,6.55,5.18,3l9-20.57c1.54-3.5-3.63-6.56-5.18-3Z"/><path class="cls-1" d="M80.74,83.91,72.61,101c-1.65,3.46,3.52,6.51,5.18,3l8.13-17.07c1.65-3.47-3.52-6.52-5.18-3Z"/><path class="cls-1" d="M97.3,83.91,92.85,94a3.11,3.11,0,0,0,1.08,4.1A3,3,0,0,0,98,97l4.44-10.07a3.1,3.1,0,0,0-1.08-4.1c-1.27-.76-3.45-.41-4.1,1.07Z"/><path class="cls-2" d="M64.81,71.36c-.92.09-1.84.13-2.78.13A27.93,27.93,0,0,1,59,71.33Z"/><path class="cls-2" d="M118,50c0,11.87-10.19,21.5-22.75,21.5l-30.39-.13-5.83,0c-.69-.06-1.37-.16-2-.27l-18.11.2a20,20,0,0,1-4.8.58c-10.56,0-19.12-8.09-19.12-18.07s8.49-18,19-18.07C37.54,24.27,48.75,16,62,16A29.7,29.7,0,0,1,87.44,29.77a23.92,23.92,0,0,1,7.76-1.28C107.76,28.49,118,38.11,118,50Z"/><rect class="cls-3" width="131.2" height="122.2"/></g></g></svg>