<svg xmlns="http://www.w3.org/2000/svg" viewBox="0 0 113 113"><defs><style>.cls-1{fill:#fff;}.cls-2{fill:none;}</style></defs><g id="Layer_2" data-name="Layer 2"><g id="Layer_1-2" data-name="Layer 1"><path class="cls-1" d="M54.2,11.56V56.7a1.8,1.8,0,0,0,3.6,0V11.56a1.8,1.8,0,0,0-3.6,0Z"/><path class="cls-1" d="M64.1,16.25,55.58,26.47c-1.47,1.77,1.06,4.33,2.54,2.55L66.64,18.8c1.47-1.77-1.06-4.33-2.54-2.55Z"/><path class="cls-1" d="M45.55,19.42l8.52,10.22c1.48,1.79,4-.77,2.54-2.54L48.09,16.88c-1.48-1.78-4,.77-2.54,2.54Z"/><path class="cls-1" d="M86.64,23.51,54.73,55.43A1.8,1.8,0,0,0,57.27,58L89.19,26.06a1.8,1.8,0,0,0-2.55-2.55Z"/><path class="cls-1" d="M90.33,33.82,77.08,35c-2.29.21-2.31,3.81,0,3.6l13.25-1.21c2.28-.2,2.31-3.81,0-3.6Z"/><path class="cls-1" d="M75,23,73.77,36.2c-.21,2.31,3.39,2.29,3.6,0L78.57,23c.21-2.3-3.39-2.29-3.6,0Z"/><path class="cls-1" d="M101.14,54.9H56a1.8,1.8,0,0,0,0,3.6h45.14a1.8,1.8,0,0,0,0-3.6Z"/><path class="cls-1" d="M96.45,64.8,86.23,56.28c-1.77-1.47-4.33,1.06-2.55,2.55L93.9,67.34c1.77,1.48,4.33-1.06,2.55-2.54Z"/><path class="cls-1" d="M93.28,46.25,83.06,54.77c-1.78,1.48.78,4,2.54,2.54L95.82,48.8c1.79-1.49-.77-4-2.54-2.55Z"/><path class="cls-1" d="M89.19,87.35,57.27,55.43A1.8,1.8,0,0,0,54.73,58L86.64,89.89a1.8,1.8,0,0,0,2.55-2.54Z"/><path class="cls-1" d="M78.88,91,77.67,77.78c-.2-2.29-3.81-2.31-3.6,0L75.28,91c.21,2.29,3.81,2.31,3.6,0Z"/><path class="cls-1" d="M89.75,75.67,76.5,74.47c-2.31-.21-2.29,3.39,0,3.6l13.25,1.2c2.31.21,2.29-3.39,0-3.6Z"/><path class="cls-1" d="M57.8,101.84V56.7a1.8,1.8,0,0,0-3.6,0v45.14a1.8,1.8,0,0,0,3.6,0Z"/><path class="cls-1" d="M47.9,97.15l8.52-10.22c1.47-1.77-1.06-4.33-2.54-2.54L45.36,94.61c-1.47,1.76,1.06,4.32,2.54,2.54Z"/><path class="cls-1" d="M66.45,94,57.93,83.76c-1.48-1.78-4,.78-2.54,2.55l8.52,10.22c1.48,1.78,4-.78,2.54-2.55Z"/><path class="cls-1" d="M25.36,89.89,57.27,58a1.8,1.8,0,0,0-2.54-2.54L22.81,87.35a1.8,1.8,0,0,0,2.55,2.54Z"/><path class="cls-1" d="M21.67,79.58l13.25-1.2c2.29-.21,2.31-3.81,0-3.6L21.67,76c-2.28.21-2.31,3.81,0,3.6Z"/><path class="cls-1" d="M37,90.45l1.2-13.25c.21-2.3-3.39-2.29-3.6,0l-1.2,13.25c-.21,2.31,3.39,2.29,3.6,0Z"/><path class="cls-1" d="M10.86,58.5H56a1.8,1.8,0,0,0,0-3.6H10.86a1.8,1.8,0,0,0,0,3.6Z"/><path class="cls-1" d="M15.55,48.61l10.22,8.51c1.77,1.48,4.33-1.06,2.55-2.54L18.1,46.06c-1.77-1.47-4.33,1.06-2.55,2.55Z"/><path class="cls-1" d="M18.72,67.15l10.22-8.51c1.78-1.49-.78-4-2.54-2.55L16.18,64.61c-1.79,1.48.77,4,2.54,2.54Z"/><path class="cls-1" d="M22.81,26.06,54.73,58a1.8,1.8,0,0,0,2.54-2.54L25.36,23.51a1.8,1.8,0,0,0-2.55,2.55Z"/><path class="cls-1" d="M33.12,22.38l1.21,13.24c.2,2.29,3.81,2.31,3.6,0L36.72,22.38c-.21-2.29-3.81-2.31-3.6,0Z"/><path class="cls-1" d="M22.25,37.73,35.5,38.94c2.31.21,2.29-3.4,0-3.6L22.25,34.13c-2.31-.21-2.29,3.39,0,3.6Z"/><rect class="cls-2" width="113" height="113"/></g></g></svg>